<svg width="307" height="260" viewBox="0 0 307 260" fill="none" xmlns="http://www.w3.org/2000/svg">
<rect x="20" y="77" width="18" height="89" fill="#263654"/>
<path d="M48.5 77V93H93V114.5H48.5V165.5H109V150H65.5V129H109V77H48.5Z" fill="#263654"/>
<path d="M121.5 125V108.5H137.5V125H121.5Z" fill="#263654"/>
<path d="M137.5 150H121.5V165.5H137.5V150Z" fill="#263654"/>
<path d="M210 77H151V129H194V150H151V165.5H210V114.5H167.5V93H210V77Z" fill="#263654"/>
<line x1="285" y1="84.5" x2="225" y2="84.5" stroke="#263654" stroke-width="15"/>
<line x1="285" y1="156.5" x2="225" y2="156.5" stroke="#263654" stroke-width="15"/>
<line x1="277.629" y1="91.0161" x2="277.5" y2="151.016" stroke="#263654" stroke-width="15"/>
<line x1="232.629" y1="91.0161" x2="232.5" y2="151.016" stroke="#263654" stroke-width="15"/>
</svg>
